<?xml version="1.0" encoding="UTF-8"?>
<svg id="Layer_1" data-name="Layer 1" xmlns="http://www.w3.org/2000/svg" version="1.1" xmlns:xlink="http://www.w3.org/1999/xlink" viewBox="0 0 500 250">
  <defs>
    <style>
      .cls-1 {
        fill: #fff200;
      }

      .cls-1, .cls-2, .cls-3, .cls-4, .cls-5, .cls-6, .cls-7 {
        stroke-width: 0px;
      }

      .cls-2 {
        fill: none;
      }

      .cls-3 {
        fill: #6c3;
      }

      .cls-8 {
        clip-path: url(#clippath-1);
      }

      .cls-4 {
        fill: #ceff00;
      }

      .cls-9 {
        clip-path: url(#clippath);
      }

      .cls-5 {
        fill: #f90;
      }

      .cls-6 {
        fill: #0dff00;
      }

      .cls-7 {
        fill: #ea1100;
      }
    </style>
    <clipPath id="clippath">
      <rect class="cls-2" x="9.4" y="2.5" width="481.2" height="245"/>
    </clipPath>
    <clipPath id="clippath-1">
      <rect class="cls-2" x="9.4" y="2.5" width="481.2" height="245"/>
    </clipPath>
  </defs>
  <g id="g830">
    <g class="cls-9">
      <g class="cls-8">
        <path class="cls-7" d="M9.4,247.5c.3-33.8,7.5-67.2,21-98l16.9,9.7c-1,1.8-2,3.6-2.9,5.5-.3.7-.7,1.3-1,2-1.4,2.8-2.7,5.6-4,8.5-.3.7-.6,1.5-.9,2.2-1.2,2.9-2.4,5.9-3.4,8.9-.2.7-.5,1.4-.7,2.1-1.1,3.1-2,6.2-2.9,9.3-.2.7-.4,1.3-.6,2-.9,3.3-1.7,6.6-2.4,10-.1.5-.2,1-.3,1.5-.7,3.5-1.3,7.1-1.8,10.7,0,.4-.1.7-.2,1.1-.5,3.8-.9,7.7-1.2,11.6,0,.2,0,.3,0,.5-.3,4.1-.4,8.2-.4,12.4h-15Z"/>
        <path class="cls-5" d="M47.3,159.2l-16.9-9.7c14.2-33.5,35.7-63.4,62.7-87.4l18,31.1c-2.2,1.3-4.3,2.7-6.5,4.1-.2.1-.3.2-.5.3-3.4,2.3-6.8,4.7-10,7.2-.2.1-.3.2-.5.3-3.3,2.6-6.6,5.3-9.7,8.1,0,0,0,0,0,0-3.2,2.9-6.3,5.8-9.2,8.9,0,0-.1.2-.2.2-2.9,3-5.6,6.1-8.3,9.2-.2.2-.4.5-.6.7-2.5,3.1-5,6.2-7.3,9.5-.2.3-.4.6-.6.8-2.4,3.4-4.7,6.8-6.8,10.4,0,0-.1.2-.1.2-1.2,1.9-2.3,3.9-3.4,5.9Z"/>
        <path class="cls-1" d="M111.2,93.2l-18-31.1c30.7-26.8,67.5-45.2,107.1-53.6v60.1c-6,0-12,.3-17.8.9,0,0-.1,0-.2,0,0,0,0,0,0,0-5.8.6-11.4,1.5-17,2.6-.2,0-.3,0-.5,0,0,0,0,0,0,0-5.4,1.1-10.7,2.5-15.9,4.2-.4.1-.9.3-1.3.4-5,1.6-9.9,3.4-14.7,5.5-.5.2-1.1.5-1.6.7-4.6,2-9.1,4.2-13.5,6.6-.7.4-1.4.7-2.1,1.1-1.5.8-2.9,1.7-4.4,2.5h0Z"/>
        <path class="cls-4" d="M289.4,93.2c-1.4-.9-2.9-1.7-4.3-2.5-.7-.4-1.5-.8-2.2-1.2-4.4-2.4-8.8-4.6-13.4-6.6-.6-.3-1.2-.5-1.8-.7-4.8-2-9.6-3.9-14.6-5.5-.4-.1-.9-.3-1.3-.4-5.2-1.6-10.5-3-15.9-4.2,0,0,0,0,0,0-.2,0-.3,0-.5,0-5.6-1.2-11.3-2-17-2.7,0,0,0,0,0,0,0,0-.1,0-.2,0-5.9-.6-11.8-.9-17.8-.9V8.4c16.3-3.7,33-5.7,49.7-5.9,28.3,0,56.4,5.1,83,15.1l-43.7,75.6Z"/>
        <path class="cls-3" d="M353.2,159.2c-.5-.9-1-1.8-1.6-2.7-.4-.7-.8-1.3-1.2-2-1.6-2.7-3.4-5.4-5.1-8-.4-.6-.8-1.2-1.2-1.8-1.8-2.6-3.7-5.2-5.7-7.8-.4-.5-.8-1.1-1.2-1.6-2-2.6-4.2-5.1-6.3-7.6-.4-.4-.7-.8-1.1-1.2-2.4-2.6-4.8-5.2-7.3-7.7-.2-.2-.3-.4-.5-.5-2.6-2.5-5.3-5-8-7.4-.2-.2-.4-.3-.6-.5-2.8-2.4-5.7-4.7-8.7-7-.1,0-.2-.2-.3-.2-3-2.3-6.1-4.4-9.2-6.5,0,0-.2-.1-.3-.2-1.8-1.2-3.7-2.4-5.6-3.5l43.6-75.6c45.5,17.1,84.9,47.8,113,88l-92.8,53.6Z"/>
        <path class="cls-6" d="M376.1,247.5c0-4.1-.1-8.2-.4-12.3,0,0,0,0,0,0,0,0,0,0,0-.1-.3-4-.7-7.9-1.2-11.9,0-.1,0-.3,0-.4-.5-3.8-1.2-7.6-1.9-11.4,0-.2,0-.4-.1-.6-.8-3.7-1.6-7.4-2.6-11,0-.2,0-.3-.1-.5-1-3.6-2.1-7.2-3.3-10.8,0-.2-.1-.4-.2-.5-1.2-3.5-2.5-7-4-10.4,0-.2-.1-.3-.2-.5-1.5-3.4-3-6.8-4.7-10.2,0-.1-.1-.2-.2-.3-1.2-2.5-2.5-4.9-3.9-7.4l92.8-53.6c29,41.4,44.5,91,44.6,141.9h-114.5Z"/>
      </g>
    </g>
  </g>
</svg>